<svg width="33" height="33" viewBox="0 0 33 33" fill="none" xmlns="http://www.w3.org/2000/svg">
<path d="M32.6791 13.2685H31.35V13.2H16.5V19.8H25.825C24.4646 23.642 20.809 26.4 16.5 26.4C11.0327 26.4 6.6 21.9673 6.6 16.5C6.6 11.0327 11.0327 6.6 16.5 6.6C19.0237 6.6 21.3197 7.55205 23.0678 9.10717L27.7348 4.44015C24.788 1.69372 20.8461 0 16.5 0C7.38787 0 0 7.38787 0 16.5C0 25.6121 7.38787 33 16.5 33C25.6121 33 33 25.6121 33 16.5C33 15.3937 32.8862 14.3138 32.6791 13.2685Z" fill="#FFC107"/>
<path d="M2 8.96086L7.45625 13C8.93261 9.31038 12.5081 6.70535 16.6923 6.70535C19.2323 6.70535 21.5432 7.6726 23.3027 9.25255L28 4.51102C25.034 1.72076 21.0666 0 16.6923 0C10.3135 0 4.78168 3.63514 2 8.96086Z" fill="#FF3D00"/>
<path d="M16.8308 33C21.1339 33 25.0438 31.3882 28 28.7672L22.844 24.4969C21.1152 25.7837 19.0028 26.4797 16.8308 26.478C12.4978 26.478 8.81861 23.7738 7.43256 20L2 24.0966C4.7571 29.377 10.3563 33 16.8308 33Z" fill="#4CAF50"/>
<path d="M32.6888 13.0705H31.4V13H17V19.7983H26.0424C25.4114 21.6818 24.2747 23.3276 22.7728 24.5325L22.7752 24.5308L27.7272 28.9819C27.3768 29.3202 33 24.897 33 16.3991C33 15.2596 32.8896 14.1472 32.6888 13.0705Z" fill="#1976D2"/>
</svg>
