<svg width="29" height="33" viewBox="0 0 29 33" fill="none" xmlns="http://www.w3.org/2000/svg">
<path d="M28 22.3043V10.3043C27.9995 9.77818 27.8606 9.26148 27.5973 8.80601C27.334 8.35054 26.9556 7.97231 26.5 7.70927L16 1.70927C15.5439 1.44596 15.0266 1.30734 14.5 1.30734C13.9734 1.30734 13.4561 1.44596 13 1.70927L2.5 7.70927C2.04439 7.97231 1.66597 8.35054 1.40269 8.80601C1.13941 9.26148 1.00054 9.77818 1 10.3043V22.3043C1.00054 22.8304 1.13941 23.3471 1.40269 23.8025C1.66597 24.258 2.04439 24.6362 2.5 24.8993L13 30.8993C13.4561 31.1626 13.9734 31.3012 14.5 31.3012C15.0266 31.3012 15.5439 31.1626 16 30.8993L26.5 24.8993C26.9556 24.6362 27.334 24.258 27.5973 23.8025C27.8606 23.3471 27.9995 22.8304 28 22.3043Z" stroke="white" stroke-width="2" stroke-linecap="round" stroke-linejoin="round"/>
<path d="M1.40503 8.74426L14.5 16.3193L27.595 8.74426" stroke="white" stroke-width="2" stroke-linecap="round" stroke-linejoin="round"/>
<path d="M14.5 31.4243V16.3043" stroke="white" stroke-width="2" stroke-linecap="round" stroke-linejoin="round"/>
</svg>
