<svg width="174" height="154" viewBox="0 0 174 154" fill="none" xmlns="http://www.w3.org/2000/svg">
<path d="M0 79.4931C0.701762 83.6178 2.83942 87.3616 6.035 90.0624C9.23057 92.7631 13.2782 94.247 17.4622 94.2515H158.196C162.11 94.2759 165.875 92.7568 168.675 90.0236C171.476 87.2904 173.086 83.5635 173.158 79.6508V79.4931H0Z" fill="#F9B80C"/>
<path d="M156.349 58.9878H17.4622C13.2933 58.9832 9.25642 60.4495 6.06223 63.1285C2.86805 65.8075 0.721336 69.5275 0 73.6335H158.489C158.487 68.6738 157.766 63.7406 156.349 58.9878Z" fill="#061D3C"/>
<path d="M52.8143 58.9658H24.3114L25.7985 73.7241H47.9249L52.8143 58.9658Z" fill="#030507"/>
<path d="M146.142 58.9658H159.886L173.158 73.7241H151.031L146.142 58.9658Z" fill="#030507"/>
<path d="M52.8143 94.2285H24.3114L25.7985 79.6053H47.9249L52.8143 94.2285Z" fill="#F8A913"/>
<path d="M99.6133 5.51625e-05C89.9317 -0.0117878 80.3426 1.88342 71.3934 5.57748C62.4442 9.27154 54.3103 14.6921 47.456 21.5297C40.6017 28.3672 35.1612 36.4879 31.4453 45.428C27.7294 54.3681 25.8107 63.9526 25.7989 73.6342H47.9252C47.9252 59.9496 53.3614 46.8255 63.0379 37.1489C72.7144 27.4724 85.8386 22.0362 99.5232 22.0362C113.208 22.0362 126.332 27.4724 136.009 37.1489C145.685 46.8255 151.121 59.9496 151.121 73.6342H173.248C173.224 54.1126 165.458 35.3973 151.654 21.5934C137.85 7.78943 119.135 0.0239057 99.6133 5.51625e-05Z" fill="#061D3C"/>
<path d="M168.223 101.304C162.322 101.364 156.494 102.623 151.095 105.005C145.695 107.388 140.836 110.843 136.814 115.161C129.692 122.608 120.504 127.752 110.434 129.93C100.363 132.109 89.8707 131.223 80.3081 127.385C70.7456 123.548 62.5508 116.936 56.7794 108.4C51.008 99.8649 47.9243 89.7968 47.9254 79.4931H25.7991C25.7557 97.1665 32.0627 114.267 43.571 127.681C55.0793 141.094 71.0231 149.926 88.4978 152.569C105.973 155.212 123.815 151.49 138.776 142.08C153.736 132.671 164.818 118.2 170.003 101.304H168.223Z" fill="#F9B80C"/>
</svg>
